GIL02_xslow2_RRA_states
nRows=4
nColumns=47

# SIMM Motion File Header:
name GIL02_xslow2_RRA_states
datacolumns 47
datarows 4
otherdata 1
range 1.55399999999993940000 1.55549999999993930000
endheader
time	pelvis_tx	pelvis_ty	pelvis_tz	pelvis_tilt	pelvis_list	pelvis_rotation	hip_flexion_r	hip_adduction_r	hip_rotation_r	knee_angle_r	ankle_angle_r	subtalar_angle_r	mtp_angle_r	hip_flexion_l	hip_adduction_l	hip_rotation_l	knee_angle_l	ankle_angle_l	subtalar_angle_l	mtp_angle_l	lumbar_extension	lumbar_bending	lumbar_rotation	pelvis_tx_u	pelvis_ty_u	pelvis_tz_u	pelvis_tilt_u	pelvis_list_u	pelvis_rotation_u	hip_flexion_r_u	hip_adduction_r_u	hip_rotation_r_u	knee_angle_r_u	ankle_angle_r_u	subtalar_angle_r_u	mtp_angle_r_u	hip_flexion_l_u	hip_adduction_l_u	hip_rotation_l_u	knee_angle_l_u	ankle_angle_l_u	subtalar_angle_l_u	mtp_angle_l_u	lumbar_extension_u	lumbar_bending_u	lumbar_rotation_u
      1.55399999999993940000	      2.02628234849267570000	      0.94993857389961911000	     -0.26845653495026456000	     -0.60354445522103517000	      1.68172011189805960000	      3.82404420621935650000	      6.29938399941343800000	      0.89475485681731082000	      8.63005382925280710000	    -12.00794112791397500000	      7.07782982820750650000	     -0.00000000000015687642	      0.00000000000010738060	     13.81400699917115200000	      2.32252198679350120000	      3.84014077623615570000	    -47.07483382145680700000	      0.07780380441624415400	      0.00000000000043105085	     -0.00000000000027009432	     -1.81639508514987070000	      1.95580865156495820000	     -0.22053939147647802000	      0.29854604448779876000	      0.00482223973930363640	      0.00561639582830710230	      3.47726923116846280000	     15.52563734687341900000	     -3.57888941697914480000	    -28.18506754682008300000	     -8.46508127629339310000	     15.02433324592256100000	     -1.08642343882567190000	     14.43750079704230100000	     -0.00000000000012578046	      0.00000000000000255829	     62.37880719608193700000	     19.85068847041179700000	     -8.86361377104295480000	     95.51224009571274100000	    138.96106829912929000000	      0.00000000000028499846	      0.00000000000060018879	    -17.06064047129413200000	    -14.21686266200381600000	     -2.65427191500790550000
      1.55449999999993940000	      2.02643156101231710000	      0.94994091186188068000	     -0.26845377483230742000	     -0.60182988804026250000	      1.68947570058466720000	      3.82226193137732920000	      6.28532195012774150000	      0.89052197577525061000	      8.63760485762542450000	    -12.00848460975400500000	      7.08504638090641500000	     -0.00000000000015693861	      0.00000000000010737654	     13.84520889499388500000	      2.33244504948362370000	      3.83570772355401910000	    -47.02699475835811400000	      0.14713489886839790000	      0.00000000000043119314	     -0.00000000000026979441	     -1.82489753654877010000	      1.94870749487035750000	     -0.22187518041910331000	      0.29830442858837275000	      0.00453003988944499640	      0.00542408876944266900	      3.38119377740010840000	     15.49666814379077300000	     -3.55015699989863490000	    -28.06344493509492500000	     -8.46638663445954980000	     15.17973374985363000000	     -1.08743980026863700000	     14.42957541884224400000	     -0.00000000000012018922	     -0.00000000000003746026	     62.42843908929985700000	     19.84150167505491400000	     -8.86839461724014380000	     95.84411100239280800000	    138.36175476666480000000	      0.00000000000028395066	      0.00000000000059783604	    -16.94937461755952400000	    -14.18770936875689200000	     -2.68879742344675640000
      1.55499999999993930000	      2.02658065331519180000	      0.94994310436996476000	     -0.26845111084816115000	     -0.60016306790749796000	      1.69721672934877850000	      3.82049410210131370000	      6.27132024047759180000	      0.88628852855167317000	      8.64523350957903070000	    -12.00902850441228700000	      7.09226025919923940000	     -0.00000000000015699938	      0.00000000000010735660	     13.87643510242958600000	      2.34236342636295540000	      3.83127258421929670000	    -46.97898961325939400000	      0.21616400595910973000	      0.00000000000043133514	     -0.00000000000026949564	     -1.83334466832453400000	      1.94162099850140570000	     -0.22322810235793653000	      0.29806517656508724000	      0.00424042310804279010	      0.00523186193742634230	      3.28627966003584370000	     15.46739485088359000000	     -3.52110732147771130000	    -27.94370649585496800000	     -8.46734181527349780000	     15.33481347477733100000	     -1.08807633414018600000	     14.42678340676352500000	     -0.00000000000011303908	     -0.00000000000005918379	     62.47605593084560400000	     19.83194229672098500000	     -8.87195984994023950000	     96.17656467470642700000	    137.75312262685810000000	      0.00000000000028364319	      0.00000000000059748679	    -16.83936024609052900000	    -14.15821831817338600000	     -2.72280364465032280000
      1.55549999999993930000	      2.02672962658411350000	      0.94994515272305757000	     -0.26844854295070203000	     -0.59854340996384703000	      1.70494304424923460000	      3.81874087558307500000	      6.25737792444586830000	      0.88205469440777717000	      8.65293960786869930000	    -12.00957262377470900000	      7.09947402094415030000	     -0.00000000000015705568	      0.00000000000010733254	     13.90768460734811800000	      2.35227692809105180000	      3.82683596893481770000	    -46.93081809155327000000	      0.28488647978840281000	      0.00000000000043147699	     -0.00000000000026919685	     -1.84173711112883320000	      1.93454933235405990000	     -0.22459789430822386000	      0.29782829623607382000	      0.00395343506794106070	      0.00503975335585346310	      3.19255615851964600000	     15.43781451187469700000	     -3.49174852550540790000	    -27.82588333488294200000	     -8.46793434780225600000	     15.48951358669800300000	     -1.08833897522180510000	     14.42913110107990500000	     -0.00000000000011203980	     -0.00000000000005822053	     62.52161124340105400000	     19.82200083312217800000	     -8.87429369208729390000	     96.50963073815206900000	    137.13524098542786000000	      0.00000000000028339595	      0.00000000000059697563	    -16.73063201596613000000	    -14.12839253437064900000	     -2.75627128508060610000
